<svg xmlns="http://www.w3.org/2000/svg" viewBox="0 0 566.93 566.93"><defs><style>.a{fill:#fff;}</style></defs><title>1</title><circle class="a" cx="189.12" cy="264.35" r="4.63"/><path class="a" d="M285.41,431.81a97.31,97.31,0,0,1-97-97V264.35h1.47v70.44a95.55,95.55,0,0,0,191.1,0V232.14a95.55,95.55,0,0,0-191.1,0h-1.47a97,97,0,0,1,194,0V334.79a97.31,97.31,0,0,1-97,97Z"/><path class="a" d="M220.45,226.48l-.14-2.75,6.29.27q9,.27,11.37.27,7.68,0,11.63-.27h4.81l.27,2.54a25.46,25.46,0,0,0-7.45,1.62q-3.51,1.35-3.51,3.78t5.12,17.17q5.11,14.61,11,29.82t6.26,15.88l2.75-7.15q.41-.81,2.17-5.08l2.72-6.56,11.65-26q-5.08-11.76-6.58-15.14a21.51,21.51,0,0,0-2.31-4.32c-1.65-2.27-4.14-3.49-7.49-3.67l-.27-2.75c3,.18,6.13.27,9.3.27q12.17,0,21.93-.67l.13,2.34a27.85,27.85,0,0,0-7,1.48,5.39,5.39,0,0,0-2.77,1.9,5.19,5.19,0,0,0-.5,2.37q0,2.28,4.24,15t10.08,28.35q5.83,15.66,7.71,19.93,4.95-12.24,9.81-25.61t7.67-22.67q2.82-9.28,2.81-12.12c0-3.63-1.24-5.93-3.74-6.89a28.79,28.79,0,0,0-9.16-1.65l-.54-2.21h7.16q9,.27,20-.06l5.35-.14-.2,2.34a14.8,14.8,0,0,0-6.85,2.21,16.72,16.72,0,0,0-5.05,6.09,95.89,95.89,0,0,0-5.35,12.5l-13.26,36.84q-3.34,9-4,10.57-1.33,3.35-2.21,5.88l-2,5.89q-1.14,3.34-2.61,7.75l-2.08-.13q-1.86-5.61-3.74-11.5T300.53,292q-1.41-4.25-2.14-6.12l-11.22-30.83c-.62,1.34-1.43,3.08-2.41,5.22s-1.74,3.72-2.27,4.75l-7.1,16.05q-2.68,5.94-4.52,11T267,303.17q-2,6.09-3.52,10.63h-1.79l-7.84-22.53q-1.68-5.14-4.26-12.74t-6-17.35q-3.45-9.77-6.36-17.25a97.09,97.09,0,0,0-4.59-10.5q-2.4-4.55-5.31-5.75A17.87,17.87,0,0,0,220.45,226.48Z"/><path class="a" d="M228.19,343.71v2.39h-9.1v-2.39Z"/><path class="a" d="M239.34,351.55a8.42,8.42,0,0,0,4.27,1.29c2.35,0,3.46-1.18,3.46-2.65s-.92-2.39-3.31-3.28c-3.21-1.14-4.72-2.9-4.72-5,0-2.87,2.32-5.23,6.15-5.23a8.85,8.85,0,0,1,4.38,1.11l-.81,2.35a6.92,6.92,0,0,0-3.64-1c-1.92,0-3,1.11-3,2.43,0,1.47,1.06,2.14,3.38,3,3.1,1.18,4.68,2.73,4.68,5.38,0,3.13-2.43,5.34-6.67,5.34a10.09,10.09,0,0,1-5-1.22Z"/><path class="a" d="M258.26,331.93v5.12h4.64v2.46h-4.64v9.61c0,2.21.63,3.46,2.43,3.46a7.27,7.27,0,0,0,1.88-.22l.15,2.43a7.89,7.89,0,0,1-2.88.45,4.45,4.45,0,0,1-3.49-1.37c-.92-.95-1.26-2.54-1.26-4.64v-9.72h-2.76v-2.46h2.76v-4.27Z"/><path class="a" d="M281.45,350c0,1.84,0,3.46.15,4.86h-2.87l-.18-2.91h-.08a6.71,6.71,0,0,1-5.89,3.31c-2.8,0-6.15-1.54-6.15-7.8V337.05h3.24v9.86c0,3.39,1,5.67,4,5.67a4.68,4.68,0,0,0,4.27-2.94,4.85,4.85,0,0,0,.29-1.66V337.05h3.24Z"/><path class="a" d="M302.22,328.73v21.54c0,1.58,0,3.38.14,4.6h-2.91l-.14-3.1h-.08a6.58,6.58,0,0,1-6.07,3.5c-4.31,0-7.62-3.64-7.62-9.06,0-5.92,3.64-9.57,8-9.57a6,6,0,0,1,5.37,2.73H299V328.73ZM299,344.3a5.73,5.73,0,0,0-.15-1.36,4.78,4.78,0,0,0-4.68-3.76c-3.35,0-5.34,2.95-5.34,6.89,0,3.61,1.77,6.59,5.27,6.59a4.88,4.88,0,0,0,4.75-3.87,5.62,5.62,0,0,0,.15-1.4Z"/><path class="a" d="M311.2,332a2,2,0,0,1-4,0,2,2,0,0,1,2-2A1.93,1.93,0,0,1,311.2,332Zm-3.61,22.83V337.05h3.24v17.82Z"/><path class="a" d="M332.33,345.81c0,6.59-4.57,9.46-8.87,9.46-4.83,0-8.55-3.53-8.55-9.17,0-6,3.91-9.46,8.84-9.46C328.87,336.64,332.33,340.36,332.33,345.81Zm-14.14.18c0,3.91,2.25,6.85,5.41,6.85s5.41-2.91,5.41-6.92c0-3-1.5-6.85-5.33-6.85S318.19,342.61,318.19,346Z"/><path class="a" d="M351.73,343.71v2.39h-9.1v-2.39Z"/></svg>