<svg xmlns="http://www.w3.org/2000/svg" viewBox="0 0 566.93 566.93"><defs><style>.a{fill:#fff;}</style></defs><title>2</title><path class="a" d="M93.51,249.32v.47c-1.4,0-2.58.87-2.58,2.86v12.9c0,7.34-3.92,10.11-9,10.85l-.12-.46c2.67-1,5.19-3.45,5.19-10.2v-9.3c0-5.84,0-6.65-2.43-6.65v-.47Z"/><path class="a" d="M133.15,271.21h-8v-.46c2,0,1.08-2.55.71-3.43l-1-2.48h-7.71c-.44,1.24-2.09,6.09,2.55,5.91v.46h-7.31v-.46c1,0,1.77,0,4.63-7.25l5.32-14.18h.4c5.72,13.72,7.81,19,7.81,19,1,2.49,1.74,2.33,2.58,2.4Zm-8.46-6.84-3.85-9.7-3.58,9.7Z"/><path class="a" d="M180.78,270.75v.46H172.1v-.46c1.31,0,2.24-.91,2.24-3.24V250.66l-7.87,20.83H166l-8.71-18.84v10.76c0,1.8.25,7.34,4.14,7.34v.46h-9.11v-.46c4.23,0,4.51-5.57,4.51-7.34v-11.5a3.76,3.76,0,0,0-3.49-2.12v-.47h7l7.77,16.7,6.19-16.7h6.22v.47c-1.34,0-2.4.75-2.4,2.74v15C178.16,269.84,179.44,270.75,180.78,270.75Z"/><path class="a" d="M209.81,249.32v.47c-1.33,0-2.42.68-2.42,2.61v15.27c0,2.11,1.12,3.08,2.42,3.08v.46h-8.67v-.46c1.34,0,2.43-1,2.43-3.08V252.4c0-1.93-1.06-2.61-2.43-2.61v-.47Z"/><path class="a" d="M246.72,264.59v6.62H230.15v-.46c1.3,0,1.74-1.37,1.74-3.49V253.12c0-1.93-.38-3.33-1.74-3.33v-.47h16.16v5.76h-.46c-.53-5.26-7.43-5.29-8.71-5.29h-1.4v10.14h1.56c.43,0,4.44,0,4.69-3.17h.47v6.83H242c-.25-3.2-4.29-3.2-4.69-3.2h-1.56v10.36H237c1.36,0,8.24.06,9.23-6.16Z"/><path class="a" d="M290.52,267.61a3.78,3.78,0,0,1-3.57,3.88s-3.08.28-4.32-1.55l-1.75-2.55c-1.18,3.54-7.55,6.18-10.66,1.86s1-7.68,3.42-9.11l1.55-.93-1.64-2.49c-2.93-4-1-7.92,2.52-8.52a4.54,4.54,0,0,1,4.5,1.28c1.22,1.43,2.58,5.1-2.14,8.46l3.91,5.81c1.19-2.61,2.77-3.2,3.58-3.39a2.53,2.53,0,0,1,2.08.37,1.72,1.72,0,0,1,.19,2.52,1.81,1.81,0,0,1-2.55.22,1.68,1.68,0,0,1-.59-1.21c0-.65-1.68-.16-2.46,1.86l2.46,3.55a3.33,3.33,0,0,0,2.58,1.43c1.09,0,2.18-.34,2.43-1.49Zm-10-.69-5.07-7.3-1.55,1c-1.74,1.24-2.95,4.32-.53,7.34A4.26,4.26,0,0,0,280.54,266.92Zm-4.63-12.71,2.24,3.29c4.07-2.67,3.36-6,2-7.68a3.27,3.27,0,0,0-3.33-.9C275.19,249.48,274.42,252,275.91,254.21Z"/><path class="a" d="M331.65,271.21h-8v-.46c2.05,0,1.08-2.55.71-3.43l-1-2.48h-7.71c-.43,1.24-2.08,6.09,2.55,5.91v.46h-7.3v-.46c1,0,1.77,0,4.63-7.25l5.32-14.18h.4c5.72,13.72,7.8,19,7.8,19,1,2.49,1.75,2.33,2.58,2.4Zm-8.45-6.84-3.86-9.7-3.57,9.7Z"/><path class="a" d="M375.33,249.32v.47c-4.6,0-4.5,5.91-4.5,7.34v14.08h-1.34l-13.4-17.07v9.21c0,1.4,0,7.4,4.17,7.4v.46h-9.21v-.46c4.57,0,4.57-6,4.57-7.4v-9.7l-1.24-1.59c-2-2.49-2.89-2.21-3.7-2.27v-.47h6.69l13,16.39v-8.58c0-1.43,0-7.37-4.17-7.34v-.47Z"/><path class="a" d="M419.17,249.32v.47c-4.6,0-4.51,5.91-4.51,7.34v14.08h-1.33l-13.4-17.07v9.21c0,1.4,0,7.4,4.16,7.4v.46h-9.2v-.46c4.57,0,4.57-6,4.57-7.4v-9.7l-1.24-1.59c-2-2.49-2.9-2.21-3.7-2.27v-.47h6.68l13,16.39v-8.58c0-1.43,0-7.37-4.17-7.34v-.47Z"/><path class="a" d="M448.21,249.32v.47c-1.34,0-2.43.68-2.43,2.61v15.27c0,2.11,1.12,3.08,2.43,3.08v.46h-8.68v-.46c1.34,0,2.43-1,2.43-3.08V252.4c0-1.93-1.06-2.61-2.43-2.61v-.47Z"/><path class="a" d="M485.11,264.59v6.62H468.54v-.46c1.31,0,1.74-1.37,1.74-3.49V253.12c0-1.93-.37-3.33-1.74-3.33v-.47h16.17v5.76h-.47c-.53-5.26-7.43-5.29-8.7-5.29h-1.4v10.14h1.55c.44,0,4.45,0,4.7-3.17h.46v6.83h-.46c-.25-3.2-4.29-3.2-4.7-3.2h-1.55v10.36h1.27c1.37,0,8.24.06,9.24-6.16Z"/><path class="a" d="M227.45,318.84a7.79,7.79,0,0,1-4.47-1v-3.34h.27c.27,1.58,1.16,4.11,4.2,4.11,2.24,0,2.71-2.74.62-4.24l-2.77-1.77c-2.07-1.33-3.33-3-1.93-5,0,0,.85-1.34,3.45-1.34a9.2,9.2,0,0,1,4.22.83V310h-.26a3.89,3.89,0,0,0-4-3.5c-1.88,0-2.95,2.37-.51,4l2.79,1.83c2.32,1.54,3,3.44,1.88,5.11C231,317.41,230.2,318.84,227.45,318.84Z"/><path class="a" d="M254,306.41v3.3h-.27c-.1-3-3.41-3-3.53-3h-.68v10.11c0,1.17.64,1.64,1.37,1.64v.26H246v-.26c.73,0,1.38-.47,1.38-1.64V306.67h-.68c-.26,0-3.42.06-3.52,3H243v-3.3Z"/><path class="a" d="M266.24,314.45v-6.26c0-1.12-.54-1.52-1.31-1.52v-.26h4.95v.26c-.75,0-1.51.23-1.51,1.54v6.38a3,3,0,0,0,3.06,3.34,3.07,3.07,0,0,0,3-3.4v-4.94c0-.84,0-2.93-2.21-2.92v-.26h4.9v.26c-2.46,0-2.43,2.08-2.43,2.92v4.94c0,3.44-2.42,4.31-4.27,4.31A4.05,4.05,0,0,1,266.24,314.45Z"/><path class="a" d="M292.59,318.68h-4.18v-.26c.75,0,1.24-.78,1.24-2v-7.81c0-1.08-.47-2-1.24-2v-.26h4.18c3.47,0,7.11,1.07,7.11,6.17S296.06,318.68,292.59,318.68Zm0-12h-.77v11.75h.77c1.78,0,4.53-.22,4.53-5.84S294.4,306.67,292.59,306.67Z"/><path class="a" d="M316.41,306.41v.26c-.75,0-1.35.39-1.35,1.47v8.56c0,1.18.62,1.72,1.35,1.72v.26h-4.86v-.26c.75,0,1.36-.54,1.36-1.72v-8.56c0-1.08-.59-1.47-1.36-1.47v-.26Z"/><path class="a" d="M333.85,318.84c-3.84,0-5.84-2.74-5.84-6.2s2-6.38,5.84-6.38,5.84,2.92,5.84,6.38S337.68,318.84,333.85,318.84Zm0-12.32c-2.08,0-3.35,1.34-3.35,6.12s1.27,5.94,3.35,5.94,3.31-1.15,3.31-5.94S335.9,306.52,333.85,306.52Z"/></svg>