<svg xmlns="http://www.w3.org/2000/svg" viewBox="0 0 566.93 566.93"><defs><style>.a{fill:#fff;}</style></defs><title>3</title><polygon class="a" points="425.98 368.67 153.95 368.67 186.73 311.89 193.32 315.7 167.13 361.06 412.81 361.06 386.7 315.85 393.29 312.04 425.98 368.67"/><polygon class="a" points="329.54 216.84 289.97 148.29 250.4 216.84 243.81 213.03 289.97 133.08 336.13 213.03 329.54 216.84"/><path class="a" d="M142.75,244.4a2.42,2.42,0,0,0-1.39,1.59,13.73,13.73,0,0,0-.36,3.72v28.93c0,3-.08,5.66-.22,7.9a25.61,25.61,0,0,1-.95,5.77,14,14,0,0,1-3.26,5.69,16.29,16.29,0,0,1-5.91,3.95,21.25,21.25,0,0,1-8,1.44,15.35,15.35,0,0,1-6.87-1.29c-2.24-1.11-3.35-2.73-3.35-4.88a4.21,4.21,0,0,1,1.49-3.37,5.88,5.88,0,0,1,4-1.28,5.7,5.7,0,0,1,3.78,1.18,4.13,4.13,0,0,1,1.39,3.34,4.41,4.41,0,0,1-.89,2.72,5.24,5.24,0,0,1-2.59,1.76A4.59,4.59,0,0,0,122,302a7,7,0,0,0,4.28-1.33,7.36,7.36,0,0,0,2.58-3.55,19.9,19.9,0,0,0,.88-3.71,38.87,38.87,0,0,0,.35-4.65q.07-2.69.07-8v-31a13.16,13.16,0,0,0-.38-3.72,2.47,2.47,0,0,0-1.43-1.59,10.29,10.29,0,0,0-3.3-.53v-1.36c2.25.13,5.71.2,10.35.2s8.13-.07,10.65-.2v1.36A10.28,10.28,0,0,0,142.75,244.4Z"/><path class="a" d="M167.23,282.51a5.48,5.48,0,0,1,0,7.66,7,7,0,0,1-8.46,0,5.48,5.48,0,0,1,0-7.66,7,7,0,0,1,8.46,0Z"/><path class="a" d="M210.54,285.06q2.94,4.72,9,4.73a10.37,10.37,0,0,0,4.29-.85,6.76,6.76,0,0,0,3-2.57,7.55,7.55,0,0,0,1.11-4.18,9.16,9.16,0,0,0-1.24-4.76,14.71,14.71,0,0,0-3.35-3.85,62.16,62.16,0,0,0-5.63-4,78.18,78.18,0,0,1-6.52-4.61,17.24,17.24,0,0,1-4-4.65,12.1,12.1,0,0,1-1.57-6.24,11.17,11.17,0,0,1,2.09-6.91,12.44,12.44,0,0,1,5.54-4.17,20.47,20.47,0,0,1,7.6-1.36,21.31,21.31,0,0,1,4.26.37,13.78,13.78,0,0,1,3,.91,28.25,28.25,0,0,1,2.64,1.37,5.55,5.55,0,0,0,2.29,1,1,1,0,0,0,1-.72,8.13,8.13,0,0,0,.53-2.27h1.56q-.33,4.55-.33,15.5h-1.56a21.26,21.26,0,0,0-1.64-7,13.92,13.92,0,0,0-3.95-5.4,9.14,9.14,0,0,0-6-2.07,8.72,8.72,0,0,0-3.86.83,6.13,6.13,0,0,0-2.66,2.4,7,7,0,0,0-.94,3.67,7.76,7.76,0,0,0,2,5.54,31.75,31.75,0,0,0,5.28,4.37q3.24,2.21,4.38,3a71.93,71.93,0,0,1,6.3,4.62,16.16,16.16,0,0,1,3.78,4.58,12.17,12.17,0,0,1,1.46,6.07,11.82,11.82,0,0,1-2.25,7.33,13.52,13.52,0,0,1-6.08,4.46,23.29,23.29,0,0,1-8.52,1.48,24.74,24.74,0,0,1-6.32-.68,20.9,20.9,0,0,1-4.63-1.84,4.75,4.75,0,0,0-2.29-1,1,1,0,0,0-1,.71,8.07,8.07,0,0,0-.54,2.27h-1.55q.26-4.24.26-18.35h1.56Q207.61,280.34,210.54,285.06Z"/><path class="a" d="M305.51,244.4A2.44,2.44,0,0,0,304.1,246a12.79,12.79,0,0,0-.38,3.72v33.71a12.76,12.76,0,0,0,.38,3.71,2.44,2.44,0,0,0,1.43,1.6,10.77,10.77,0,0,0,3.3.53v1.36c-2.52-.14-6.09-.2-10.69-.2-4.84,0-8.41.06-10.71.2v-1.36a12.42,12.42,0,0,0,3.56-.53,2.56,2.56,0,0,0,1.53-1.6,11.89,11.89,0,0,0,.41-3.71V247.88l-16.39,42.8h-1.09L257.1,246.92v32.55a28.69,28.69,0,0,0,.43,5.89,4.21,4.21,0,0,0,1.78,2.74,10.43,10.43,0,0,0,4.39,1.16v1.36c-1.75-.14-4.19-.2-7.33-.2-2.5,0-4.47.06-5.91.2v-1.36a6.55,6.55,0,0,0,3.27-1.15,4.39,4.39,0,0,0,1.43-2.59,26.71,26.71,0,0,0,.38-5.22V249.71a13.16,13.16,0,0,0-.38-3.72,2.5,2.5,0,0,0-1.41-1.59,10.11,10.11,0,0,0-3.29-.53v-1.36q2.16.19,5.91.2,6.24,0,10.72-.2l13.7,33,12.54-32.81h4.81c4.6,0,8.17-.07,10.69-.2v1.36A10.22,10.22,0,0,0,305.51,244.4Z"/><path class="a" d="M337.82,244.4a2.39,2.39,0,0,0-1.39,1.59,13.24,13.24,0,0,0-.37,3.72v33.71a13.21,13.21,0,0,0,.37,3.71,2.39,2.39,0,0,0,1.39,1.6,10.81,10.81,0,0,0,3.32.53v1.36c-2.41-.14-5.83-.2-10.25-.2-4.85,0-8.42.06-10.72.2v-1.36a10.62,10.62,0,0,0,3.28-.53,2.44,2.44,0,0,0,1.41-1.6,12.76,12.76,0,0,0,.38-3.71V249.71a12.79,12.79,0,0,0-.38-3.72,2.44,2.44,0,0,0-1.41-1.59,10,10,0,0,0-3.28-.53v-1.36q3.42.19,10.72.2,6.63,0,10.25-.2v1.36A10.22,10.22,0,0,0,337.82,244.4Z"/><path class="a" d="M352.38,254.05q0-4.63-.5-11.54,6.21.19,21,.2t20.94-.2q-.49,6.9-.5,11.54a49.58,49.58,0,0,0,.24,5.18H392a37.55,37.55,0,0,0-2.76-9,11.28,11.28,0,0,0-3.9-4.74,10.08,10.08,0,0,0-5.52-1.44h-1.56v38.82a10.64,10.64,0,0,0,.58,4.11,3.18,3.18,0,0,0,2.06,1.76,17.18,17.18,0,0,0,4.63.5v1.36q-8.56-.21-12.91-.2t-12.44.2v-1.36a17.44,17.44,0,0,0,4.66-.5,3.14,3.14,0,0,0,2-1.76,11.13,11.13,0,0,0,.56-4.11V244.07H366a10.28,10.28,0,0,0-5.56,1.42,11.32,11.32,0,0,0-3.9,4.73,38.08,38.08,0,0,0-2.78,9h-1.56C352.3,257.72,352.38,256,352.38,254.05Z"/><path class="a" d="M451.18,244.4a2.5,2.5,0,0,0-1.41,1.59,13.16,13.16,0,0,0-.38,3.72v33.71a13.13,13.13,0,0,0,.38,3.71,2.49,2.49,0,0,0,1.41,1.6,10.86,10.86,0,0,0,3.32.53v1.36c-2.25-.14-5.69-.2-10.32-.2s-8.16.06-10.68.2v-1.36a10.89,10.89,0,0,0,3.3-.53,2.47,2.47,0,0,0,1.43-1.6,13.13,13.13,0,0,0,.38-3.71V267.09h-18v16.33a13.21,13.21,0,0,0,.37,3.71,2.39,2.39,0,0,0,1.39,1.6,10.81,10.81,0,0,0,3.32.53v1.36c-2.41-.14-5.83-.2-10.25-.2-4.85,0-8.42.06-10.72.2v-1.36a10.62,10.62,0,0,0,3.28-.53,2.44,2.44,0,0,0,1.41-1.6,12.76,12.76,0,0,0,.38-3.71V249.71a12.79,12.79,0,0,0-.38-3.72A2.44,2.44,0,0,0,408,244.4a10,10,0,0,0-3.28-.53v-1.36q3.42.19,10.72.2,6.63,0,10.25-.2v1.36a10.22,10.22,0,0,0-3.32.53A2.39,2.39,0,0,0,421,246a13.24,13.24,0,0,0-.37,3.72v16h18v-16a13.16,13.16,0,0,0-.38-3.72,2.47,2.47,0,0,0-1.43-1.59,10.29,10.29,0,0,0-3.3-.53v-1.36q3.78.19,10.68.2t10.32-.2v1.36A10.28,10.28,0,0,0,451.18,244.4Z"/><path class="a" d="M198.13,414.65h3.4v19h-3.4v-8.23h-9.72v8.23H185v-19h3.38v7.94h9.72Z"/><path class="a" d="M225.44,433.61l-1.89-4.45h-9.26l-1.92,4.45h-3.46l8.57-19h2.8l8.6,19Zm-10-7.11h7l-3.49-8.12Z"/><path class="a" d="M249,414.65h3.22v19h-2.56l-10.22-13.29v13.29h-3.2v-19h2.56L249,427.91Z"/><path class="a" d="M261.68,414.65h7q4.67,0,7.23,2.48a9.19,9.19,0,0,1,2.57,7,9.3,9.3,0,0,1-2.57,7q-2.56,2.49-7.23,2.49h-7Zm6.76,16.16q6.56,0,6.55-6.71t-6.55-6.65h-3.33v13.36Z"/><path class="a" d="M291,432.65a8,8,0,0,1-3.2-3.4,12.33,12.33,0,0,1,0-10.27,7.86,7.86,0,0,1,3.2-3.38,9.78,9.78,0,0,1,4.89-1.19,10.73,10.73,0,0,1,3.61.6,7.67,7.67,0,0,1,2.81,1.67l-1.12,2.5a9.09,9.09,0,0,0-2.54-1.51,7.83,7.83,0,0,0-2.71-.46A5.24,5.24,0,0,0,291.7,419a7.68,7.68,0,0,0-1.51,5.11,7.87,7.87,0,0,0,1.49,5.15,5.23,5.23,0,0,0,4.26,1.8,7.83,7.83,0,0,0,2.71-.46,9.09,9.09,0,0,0,2.54-1.51l1.12,2.5a7.67,7.67,0,0,1-2.81,1.67,10.73,10.73,0,0,1-3.61.6A9.68,9.68,0,0,1,291,432.65Z"/><path class="a" d="M326.46,433.61h-3.62l-2.43-6.31a2.11,2.11,0,0,0-1-1.23,3.78,3.78,0,0,0-1.73-.34h-3.44v7.88h-3.41v-19H319a7.42,7.42,0,0,1,4.9,1.41,5,5,0,0,1,1.68,4.05,5.14,5.14,0,0,1-1,3.21,5.35,5.35,0,0,1-2.83,1.87,3.34,3.34,0,0,1,2.42,2.35Zm-8-10.55a4.68,4.68,0,0,0,2.87-.71,2.6,2.6,0,0,0,.93-2.19,2.5,2.5,0,0,0-.92-2.14,4.73,4.73,0,0,0-2.88-.71h-4.29v5.75Z"/><path class="a" d="M349.11,433.61l-1.89-4.45H338L336,433.61h-3.46l8.57-19H344l8.6,19Zm-10-7.11h7l-3.49-8.12Z"/><path class="a" d="M359.92,433.61v-19H372.3v2.74h-9v5.2h8.44v2.76h-8.44v8.26Z"/><path class="a" d="M385.24,433.61V417.47h-6.17v-2.82h15.84v2.82H388.7v16.14Z"/></svg>