<svg xmlns="http://www.w3.org/2000/svg" viewBox="0 0 566.93 566.93"><defs><style>.a{fill:#fff;}</style></defs><title>4</title><path class="a" d="M125.84,362.44a11.43,11.43,0,0,0,.63,4.43,3.39,3.39,0,0,0,2.28,1.88,21.46,21.46,0,0,0,5.22.52v1.67q-9.36-.22-13.93-.22-2.19,0-12,.22v-1.52a11.75,11.75,0,0,0,3.68-.6,2.77,2.77,0,0,0,1.58-1.78,14.79,14.79,0,0,0,.42-4.16V325.16a14.79,14.79,0,0,0-.42-4.16,2.77,2.77,0,0,0-1.58-1.78,11.75,11.75,0,0,0-3.68-.6V317.1q3.83.22,11.55.22,3,0,6.76-.07c2.47-.05,4.19-.07,5.16-.07a31.76,31.76,0,0,1,11.64,1.87,15.11,15.11,0,0,1,7.09,5.26,13.4,13.4,0,0,1,2.36,7.87,16.51,16.51,0,0,1-2.12,8,16.12,16.12,0,0,1-7.2,6.42q-5.08,2.56-13.44,2.56h-4Zm11.8-18.73q2.34-4,2.34-10.72,0-7.38-2.19-10.87t-7.24-3.5a6.48,6.48,0,0,0-3,.54,2.81,2.81,0,0,0-1.34,1.9,17.32,17.32,0,0,0-.35,4.1v22.5h3.26Q135.31,347.66,137.64,343.71Z"/><path class="a" d="M198.09,359.39a104.65,104.65,0,0,0,.52,11.55q-5.16-.22-17.41-.22-16.57,0-24.77.22v-1.52a11.8,11.8,0,0,0,3.68-.6,2.73,2.73,0,0,0,1.57-1.78,14.35,14.35,0,0,0,.43-4.16V325.16a14.35,14.35,0,0,0-.43-4.16,2.73,2.73,0,0,0-1.57-1.78,11.8,11.8,0,0,0-3.68-.6V317.1q8.2.22,24.77.22,11.16,0,15.89-.22-.53,6.28-.52,11.25a44.57,44.57,0,0,0,.22,5.16H195a29.15,29.15,0,0,0-2.37-8.72,10.36,10.36,0,0,0-4-4.57,12.27,12.27,0,0,0-6.05-1.37h-3.12a10.76,10.76,0,0,0-3.43.39,2.25,2.25,0,0,0-1.43,1.48,12,12,0,0,0-.38,3.55v18.82h2.42a7,7,0,0,0,6.16-3,18.48,18.48,0,0,0,2.9-7.05h1.74q-.26,3.75-.26,7.16l0,3.64q0,3.87.45,10.81h-1.75q-1.53-10.06-9.28-10.07h-2.42v19.16a12,12,0,0,0,.38,3.55A2.25,2.25,0,0,0,176,368.8a10.76,10.76,0,0,0,3.43.39h3.75a11.08,11.08,0,0,0,8.67-3.71q3.31-3.71,4.7-12.47h1.74Q198.08,355.49,198.09,359.39Z"/><path class="a" d="M251.05,319.91a4.88,4.88,0,0,0-1.59,2.89,29.11,29.11,0,0,0-.43,5.85v42.44c-.37,0-1,0-1.86,0s-1.57,0-2,0l-33-41.81v29.18a31.5,31.5,0,0,0,.49,6.59,4.72,4.72,0,0,0,2,3.07,11.74,11.74,0,0,0,4.92,1.3v1.52c-1.95-.15-4.69-.22-8.2-.22q-4.2,0-6.61.22v-1.52a7.41,7.41,0,0,0,3.65-1.28,5,5,0,0,0,1.6-2.9,29.11,29.11,0,0,0,.43-5.85V325.16A14.35,14.35,0,0,0,210,321a2.72,2.72,0,0,0-1.58-1.78,11.67,11.67,0,0,0-3.67-.6V317.1q2.42.22,6.61.22c2.55,0,4.72-.07,6.53-.22l29.44,36.28v-23.8a32.45,32.45,0,0,0-.48-6.59,4.69,4.69,0,0,0-2-3.07,11.74,11.74,0,0,0-4.91-1.3V317.1c1.95.15,4.69.22,8.2.22,2.82,0,5-.07,6.61-.22v1.52A7.39,7.39,0,0,0,251.05,319.91Z"/><path class="a" d="M306,319.91a4.88,4.88,0,0,0-1.59,2.89,29.11,29.11,0,0,0-.43,5.85v42.44c-.37,0-1,0-1.86,0s-1.57,0-2,0l-33-41.81v29.18a32.38,32.38,0,0,0,.48,6.59,4.72,4.72,0,0,0,2,3.07,11.84,11.84,0,0,0,4.92,1.3v1.52c-1.95-.15-4.69-.22-8.2-.22q-4.2,0-6.61.22v-1.52a7.49,7.49,0,0,0,3.66-1.28,4.94,4.94,0,0,0,1.59-2.9,29.11,29.11,0,0,0,.43-5.85V325.16a14.35,14.35,0,0,0-.43-4.16,2.73,2.73,0,0,0-1.57-1.78,11.8,11.8,0,0,0-3.68-.6V317.1q2.42.22,6.61.22,3.82,0,6.53-.22l29.45,36.28v-23.8a32.28,32.28,0,0,0-.49-6.59,4.72,4.72,0,0,0-2-3.07,11.84,11.84,0,0,0-4.92-1.3V317.1c1.95.15,4.69.22,8.2.22,2.82,0,5-.07,6.61-.22v1.52A7.39,7.39,0,0,0,306,319.91Z"/><path class="a" d="M353,317.25q3.5,0,5.8-.22v1.52a9.93,9.93,0,0,0-3.51,2.8,32.46,32.46,0,0,0-3.81,6l-9,17.78v17.75a14.79,14.79,0,0,0,.42,4.16,2.74,2.74,0,0,0,1.58,1.78,11.92,11.92,0,0,0,3.71.6v1.52q-4.11-.22-11.69-.22-8.13,0-11.81.22v-1.52a12,12,0,0,0,3.7-.6A2.71,2.71,0,0,0,330,367a14.35,14.35,0,0,0,.43-4.16V350l-14.7-27.15c-1.56-2.84-3-4.27-4.38-4.27V317a83.54,83.54,0,0,0,8.94.37q7.14,0,14.3-.37v1.59a15.07,15.07,0,0,0-4.21.47c-1,.31-1.55.9-1.55,1.76a3.63,3.63,0,0,0,.52,1.71L341,344.84l5.9-11.85q3-6,3-9.39a4.32,4.32,0,0,0-1.64-3.75,8.43,8.43,0,0,0-4.71-1.3V317C346.94,317.18,350.1,317.25,353,317.25Z"/><path class="a" d="M441.35,317.32q3.6,0,5.87-.22v1.52q-4.46,1.71-6.68,9.06l-13.41,43.41c-.54,0-1.43-.08-2.67-.08s-2.09,0-2.64.08l-11.21-33.9-11.21,33.9c-.57,0-1.46-.08-2.68-.08s-2.1,0-2.67.08l-17-47.6a8.43,8.43,0,0,0-2.17-3.64,4.41,4.41,0,0,0-2.62-1.23V317.1q4.56.22,11.36.22c4.26,0,7.36-.07,9.32-.22v1.52a2.7,2.7,0,0,0-2.64,3,11.3,11.3,0,0,0,.67,3.42L402,357.09l7.73-22.57-3.9-11.77a7,7,0,0,0-1.78-3.12,4.17,4.17,0,0,0-2.42-1V317.1q4.23.22,10.88.22,7.4,0,10.95-.22v1.52a10.84,10.84,0,0,0-4,.64,2.18,2.18,0,0,0-1.19,2.19,12.86,12.86,0,0,0,.75,3.56l10.39,31.82,7.24-23a32.2,32.2,0,0,0,1.71-8.88q0-3.3-1.62-4.77a7.51,7.51,0,0,0-4.88-1.58V317.1Q437.05,317.33,441.35,317.32Z"/><path class="a" d="M457.13,361.86a6.13,6.13,0,0,1,0,8.58,7.88,7.88,0,0,1-9.47,0,6.16,6.16,0,0,1,0-8.58,7.88,7.88,0,0,1,9.47,0Z"/><path class="a" d="M283.46,290.8a39.79,39.79,0,0,1-37.32-53.58,40.38,40.38,0,0,1,8.38-13.48,39.76,39.76,0,1,1,28.94,67.06Zm0,0a37,37,0,0,0,14.54-3,36.38,36.38,0,0,0,12.09-8.47,36.46,36.46,0,0,0-1.68-51.59,36.51,36.51,0,0,0-59.27,39.17,37,37,0,0,0,7.68,12.43,36.62,36.62,0,0,0,12.09,8.47A37.27,37.27,0,0,0,283.46,290.8Z"/><path class="a" d="M270.09,204a13.69,13.69,0,0,1,6.15-6.91,17.35,17.35,0,0,1,16.75,0,13.67,13.67,0,0,1,6.15,6.92,40.55,40.55,0,0,1-8.08,2.53,31.45,31.45,0,0,1-6.45.64,33.12,33.12,0,0,1-6.45-.67A41.26,41.26,0,0,1,270.09,204Z"/></svg>