<svg xmlns="http://www.w3.org/2000/svg" viewBox="0 0 566.93 566.93"><defs><style>.a{fill:#fff;}</style></defs><title>5</title><path class="a" d="M183.25,257.15c.47,14,.69,28.07.87,42.1s.18,28.07.28,42.1l-.58-1,18.88,11c6.28,3.69,12.61,7.3,18.85,11.06,12.52,7.45,25,14.92,37.39,22.63-12.86-6.86-25.59-13.95-38.3-21.07-6.37-3.52-12.66-7.2-19-10.79l-19-10.85-.58-.33v-.66c.1-14,.07-28.07.27-42.1S182.78,271.18,183.25,257.15Z"/><path class="a" d="M383.68,311.41c-.47-14.3-.7-28.6-.88-42.89s-.17-28.59-.27-42.89l.57,1-18.89-11c-6.29-3.7-12.62-7.31-18.87-11.08-12.53-7.45-25-14.94-37.44-22.65,12.87,6.87,25.62,14,38.34,21.1,6.39,3.52,12.68,7.2,19,10.8l19,10.85.58.33v.67c-.1,14.3-.07,28.59-.27,42.89S384.15,297.11,383.68,311.41Z"/><path class="a" d="M270.85,287.13v-.22a2,2,0,0,0,.48-.13.31.31,0,0,0,.18-.29,1.94,1.94,0,0,0-.12-.56c-.08-.24-.14-.41-.18-.5l-.48-1.32a9.11,9.11,0,0,0-1.25-.06H269a7.38,7.38,0,0,0-1.39.08l-.48,1.22a3.9,3.9,0,0,0-.32,1,.46.46,0,0,0,.21.38,1.94,1.94,0,0,0,.84.25v.22a11.51,11.51,0,0,0-1.31-.09c-.37,0-.77,0-1.2.05v-.19a1.3,1.3,0,0,0,.61-.31,2.67,2.67,0,0,0,.42-.66c.17-.34.35-.72.53-1.13s.3-.72.38-.95l1.06-2.52c.13-.31.27-.63.4-1s.27-.66.4-1,.21-.6.27-.8a.17.17,0,0,1,0-.13h.22c.13.49.28,1,.44,1.4l1.39,3.72c.35.93.62,1.61.8,2.05a6.19,6.19,0,0,0,.48.95,1,1,0,0,0,.71.3v.23a9.51,9.51,0,0,0-1-.06l-.73,0-.54,0Zm-2.09-5.94-.75,1.92c-.1.27-.17.44-.2.51a6.62,6.62,0,0,0,1.15.08h.61c.36,0,.69,0,1,0a5.57,5.57,0,0,0-.3-.79l-.47-1.22q-.07-.19-.3-.72c-.15-.34-.25-.58-.32-.71-.08.19-.16.35-.21.51S268.82,281,268.76,281.19Z"/><path class="a" d="M280.56,278.83v-.27l.76.05h.95c.27.33.58.69.93,1.06s.76.78,1.2,1.2l.75.73,3.89,3.7c0-.55,0-1.39,0-2.5v-1.28a15.12,15.12,0,0,0,0-1.53,1.76,1.76,0,0,0-.19-.75.64.64,0,0,0-.36-.33,4.31,4.31,0,0,0-.75-.17l.07-.18.33,0h.4l.49,0,.34,0h.29l.84,0v.23a1.46,1.46,0,0,0-.57.18.74.74,0,0,0-.24.42,13.38,13.38,0,0,0-.17,2.11c0,1.05,0,2.05,0,3,0,.38,0,.74,0,1.08s0,.65,0,.92,0,.53,0,.76h-.27a13.09,13.09,0,0,0-2.74-3.11l-2.47-2.31c-.09-.06-.29-.25-.61-.55l-1.23-1.14-.08,4a10.23,10.23,0,0,0,.05,1.74.87.87,0,0,0,.38.66,4.28,4.28,0,0,0,1.1.32,1,1,0,0,1,0,.25l-.63,0-.65,0-.73,0-.28,0-.46,0a.23.23,0,0,1-.14,0,.15.15,0,0,1,0-.12q0-.11,0-.12a.34.34,0,0,1,.15,0,1.23,1.23,0,0,0,.41-.11.49.49,0,0,0,.21-.28,2.79,2.79,0,0,0,.12-.65c0-.29,0-.67,0-1.14l.05-3.15c0-.69,0-1.2,0-1.53a1.56,1.56,0,0,0-.3-.81A1.14,1.14,0,0,0,280.56,278.83Z"/><path class="a" d="M297.84,278.94v-.25a27.11,27.11,0,0,0,3-.14,7,7,0,0,1,.93-.06,5.83,5.83,0,0,1,1.88.29,5.22,5.22,0,0,1,1.6.85,3.89,3.89,0,0,1,1.5,3.13,4.07,4.07,0,0,1-.62,2.19,4.25,4.25,0,0,1-1.76,1.56,5.76,5.76,0,0,1-2.61.57h-.52l-.51,0h-2.91v-.25c.47,0,.75-.1.85-.31a15.84,15.84,0,0,0,.16-3.28c0-1.29,0-2.25,0-2.89a3.3,3.3,0,0,0-.19-1.18C298.45,279,298.21,278.93,297.84,278.94Zm7.72,3.83a3.87,3.87,0,0,0-.59-2.15,4,4,0,0,0-1.52-1.36,4.18,4.18,0,0,0-1.89-.46,4.13,4.13,0,0,0-1.72.34c0,.25-.08,1-.1,2.2s0,2.28,0,3.16c0,0,0,.2,0,.5s0,.59,0,.89,0,.47,0,.52c.44.14.78.24,1,.29a3.84,3.84,0,0,0,.9.08,3.89,3.89,0,0,0,2.24-.59,3.38,3.38,0,0,0,1.26-1.5A4.88,4.88,0,0,0,305.56,282.77Z"/><path class="a" d="M273.8,303.82l-.14-.9c.34,0,1.51.05,3.51.14s3.17.14,3.53.14q1.59,0,6.26-.28l.05.9a9.18,9.18,0,0,0-3,.54,2.05,2.05,0,0,0-1.13,1.55,23.93,23.93,0,0,0-.31,4c-.05.88-.09,2-.09,3.25s0,2.5,0,3.65v3.6c0,.62,0,2.55.05,5.81s.06,5.71.06,7.36c0,1.16,0,2.2-.11,3.13a43.27,43.27,0,0,1-4.29,5.23,6.36,6.36,0,0,1-4.47,2.31,1.82,1.82,0,0,1-1-.36q-.51-.36-.51-.66t1.2-1.14a4.12,4.12,0,0,1,1.66-.71,9.66,9.66,0,0,1,1.33.42q2.94,0,2.94-12.71v-9.35c0-3.92-.05-7-.13-9.21a25,25,0,0,0-.43-4.45,2.72,2.72,0,0,0-.93-1.59,3.7,3.7,0,0,0-1.84-.63A10.32,10.32,0,0,0,273.8,303.82Z"/><path class="a" d="M261.19,233.48l.09-.9a8.19,8.19,0,0,1,.87,0l1.48.06,2.28.16c.71,0,1.43.07,2.17.07l.84,0,1.18,0c.52,1.4,1,2.58,1.4,3.53s1.25,2.64,2.49,5,2.44,4.67,3.6,6.83,2.6,4.87,4.35,8.13c.7-1.18,1.86-3.31,3.46-6.4.29-.57,1.39-2.62,3.28-6.17l4-7.51q1.15-2.19,1.74-3.48c1.23,0,2.56,0,4,0,1.2,0,2.15,0,2.85,0l-.05.87a13,13,0,0,0-2.56.48,2.12,2.12,0,0,0-1.15,1,4.73,4.73,0,0,0-.51,2c-.07.86-.09,2.38-.06,4.54l.14,6.55c0,.37,0,.75,0,1.12s0,.82,0,1.36.06,1.24.09,2.1.07,1.91.11,3.19c.08,1.47.17,2.58.27,3.31a3.9,3.9,0,0,0,.61,1.73,2,2,0,0,0,1.15.83,10.46,10.46,0,0,0,2.16.25V263l-4-.05-3.14.05a38.32,38.32,0,0,0-4.47.23l0-.89a9.64,9.64,0,0,0,2.82-1,3.17,3.17,0,0,0,1.22-1.95,16.86,16.86,0,0,0,.38-4.2c0-1.19,0-2.15-.05-2.89l-.18-6.35a71.41,71.41,0,0,0-.64-7.52q-.7,1.36-2.18,4.09t-2.7,5.07q-1.23,2.33-2.39,4.54c-.77,1.47-1.39,2.73-1.88,3.76q-1.5,3.3-2,4.45c-.32.77-.63,1.65-.95,2.64l-.72.05c-.4-1.24-.87-2.6-1.42-4.08a45.91,45.91,0,0,0-2.33-5.08q-3-5.79-8.13-15.58-.4,4-.78,9.34t-.38,11.3a3.49,3.49,0,0,0,.77,2.57c.51.48,1.71.83,3.59,1l0,.78a26.86,26.86,0,0,0-3.34-.19l-2.85,0h-.9l-1.19,0-1.53.06c-.51,0-.87,0-1.09,0l.05-.68a7.24,7.24,0,0,0,3.2-1.17,3.61,3.61,0,0,0,1.23-2.2c.18-1,.36-2.67.54-5.15l.7-12.29c.08-1.13.12-1.89.12-2.29a8.46,8.46,0,0,0-.62-3.64,3.38,3.38,0,0,0-1.79-1.71A11.43,11.43,0,0,0,261.19,233.48Z"/><path class="a" d="M370.63,393.25C380,378.1,379.27,362,371.8,352,366.33,366,365.6,381.84,370.63,393.25Z"/><path class="a" d="M325.47,418.15c13.18-12,16.72-27.69,12.25-39.31C328.76,390.7,323.73,405.81,325.47,418.15Z"/><path class="a" d="M321.68,353.19c12.71.16,26.52,3.59,36.16,11.69A33.5,33.5,0,0,1,321.68,353.19Z"/><path class="a" d="M289.2,366.31c12.27,3.59,24.61,10.65,31.68,21.06A33.57,33.57,0,0,1,289.2,366.31Z"/><path class="a" d="M253.31,400.26c14.6,5.94,35.26,3.95,47-5.72A125.5,125.5,0,0,0,253.31,400.26Z"/><path class="a" d="M296.55,395.64a181.22,181.22,0,0,0,30-11.85,170.45,170.45,0,0,0,50.66-39.1,181.8,181.8,0,0,0,19.09-26,140.29,140.29,0,0,1-17.73,27.18,147,147,0,0,1-51.25,39.53A139.6,139.6,0,0,1,296.55,395.64Z"/><path class="a" d="M196.3,173.68c-9.4,15.15-8.64,31.26-1.18,41.23C200.6,201,201.33,185.09,196.3,173.68Z"/><path class="a" d="M241.46,148.78c-13.18,12-16.72,27.68-12.25,39.31C238.16,176.23,243.2,161.12,241.46,148.78Z"/><path class="a" d="M245.25,213.74c-12.71-.16-26.52-3.59-36.17-11.69C223.74,197.54,237.88,204.07,245.25,213.74Z"/><path class="a" d="M277.73,200.62c-12.27-3.6-24.61-10.65-31.68-21.07A33.6,33.6,0,0,1,277.73,200.62Z"/><path class="a" d="M313.61,166.67c-14.59-5.94-35.25-3.95-47,5.72A125.45,125.45,0,0,0,313.61,166.67Z"/><path class="a" d="M270.38,171.29a181.22,181.22,0,0,0-30,11.85,170.66,170.66,0,0,0-50.67,39.1,181.73,181.73,0,0,0-19.08,26,140.29,140.29,0,0,1,17.73-27.18,147,147,0,0,1,51.25-39.53A139.6,139.6,0,0,1,270.38,171.29Z"/></svg>