<svg xmlns="http://www.w3.org/2000/svg" viewBox="0 0 566.93 566.93"><defs><style>.a{fill:#fff;}</style></defs><title>6</title><path class="a" d="M370.63,257.58V192.26h-5v65.79C367.32,257.85,369,257.71,370.63,257.58Z"/><path class="a" d="M366.56,299a3,3,0,0,1-.9,0v75.67h5V298.39C369.28,298.55,367.92,298.76,366.56,299Z"/><path class="a" d="M188.23,192.26v65.83c1.66,0,3.31,0,5,.09v-61h175v-5Z"/><polygon class="a" points="193.19 300.65 188.23 300.65 188.23 374.67 368.15 374.67 368.15 369.7 193.19 369.7 193.19 300.65"/><path class="a" d="M152.77,286.69a28.11,28.11,0,0,1-7.28,5.88,15.93,15.93,0,0,1-7.8,2.22,8.76,8.76,0,0,1-7.95-4.17,19,19,0,0,1-2.62-10.31,47.53,47.53,0,0,1,4-18,57.76,57.76,0,0,1,9.94-16.46q5.93-6.72,11.1-6.72a3.77,3.77,0,0,1,2.77.9,3.36,3.36,0,0,1,.9,2.48q0,2.93-2.62,7.42a48.62,48.62,0,0,1-5.4,7.65,2.54,2.54,0,0,0,2.32,1.73q2,0,4-2.7a24.28,24.28,0,0,0,3.37-6.53,20.65,20.65,0,0,0,1.35-6.75,6.08,6.08,0,0,0-1.83-4.87,7.56,7.56,0,0,0-5.07-1.58q-7,0-14.17,6.42a50.88,50.88,0,0,0-11.93,16.27A44.83,44.83,0,0,0,121.12,279a25.94,25.94,0,0,0,1.53,9,14.62,14.62,0,0,0,4.88,6.72,13.36,13.36,0,0,0,8.36,2.55,20.3,20.3,0,0,0,13.17-5,40.2,40.2,0,0,0,10.08-12.94l-1-.75A32.49,32.49,0,0,1,152.77,286.69Z"/><path class="a" d="M199.2,287.4q-3.3,3.11-5.48,3.11a2.11,2.11,0,0,1-1.91-1,4.18,4.18,0,0,1-.64-2.29,7.7,7.7,0,0,1,.75-3.11,39.22,39.22,0,0,1,2-3.86c.1-.15.38-.67.86-1.54a4.86,4.86,0,0,0,.71-1.91c0-.5-.34-.92-1-1.24a7,7,0,0,0-2-.64,138.73,138.73,0,0,1-8.7,11.59c-2.7,3.18-5,4.76-7,4.76-1.35,0-2-1-2-2.92a21.14,21.14,0,0,1,2.43-8.78,31.88,31.88,0,0,1,6.08-8.77c2.42-2.45,4.74-3.68,6.94-3.68a3.29,3.29,0,0,1,2.77,1.16,4.84,4.84,0,0,1,.9,3,9.81,9.81,0,0,1-.37,2.63,4.33,4.33,0,0,0,2.7-.75,2.94,2.94,0,0,0,1-2.48,5,5,0,0,0-1.95-4,7.49,7.49,0,0,0-4.87-1.57q-4.65,0-9.53,3.82a32.36,32.36,0,0,0-8.06,9.3q-3.19,5.48-3.19,9.9a6.39,6.39,0,0,0,1.54,4.61,5.27,5.27,0,0,0,4,1.62,8.57,8.57,0,0,0,5.29-2.1,36.3,36.3,0,0,0,6-6.6,11.89,11.89,0,0,0-.23,2.17,5.31,5.31,0,0,0,1.39,3.71,5.1,5.1,0,0,0,4,1.54,10.61,10.61,0,0,0,5.48-1.72,20.43,20.43,0,0,0,5.32-4.84,27.79,27.79,0,0,0,4.05-7.09l-.75-.75A38,38,0,0,1,199.2,287.4Z"/><path class="a" d="M243.75,283.8a23.72,23.72,0,0,1-4.76,4.46,8.64,8.64,0,0,1-4.84,1.8,2,2,0,0,1-2.25-2.25,14.76,14.76,0,0,1,1.65-5.17c.7-1.75,1.22-3.17,1.57-4.24a10.49,10.49,0,0,0,.53-3.26,6.44,6.44,0,0,0-1.31-4.17,18.7,18.7,0,0,0-3.64-3.26,15.32,15.32,0,0,1-2.06-1.61,1.93,1.93,0,0,1-.64-1.39,13.34,13.34,0,0,1,.45-1.43,5.39,5.39,0,0,0,.37-1.35q0-1.8-1-1.8a2.24,2.24,0,0,0-1.23.68,5.44,5.44,0,0,0-1.35,1.87,5.93,5.93,0,0,0-.57,2.55,2.46,2.46,0,0,0,.75,1.81,104.22,104.22,0,0,1-6.07,14.25l.67,1.27q1.28-2.18,3.15-6.19t3.53-8.21c.25.15.72.46,1.42.94a8.54,8.54,0,0,1,1.92,1.8,4.65,4.65,0,0,1,.86,3,8.59,8.59,0,0,1-.49,2.74c-.32,1-.81,2.29-1.46,3.94q-2.18,4.8-2.18,7.35a4.55,4.55,0,0,0,1.47,3.52,5.67,5.67,0,0,0,4,1.35q4.5,0,8.92-4a27.24,27.24,0,0,0,6.76-9.15l-1-.75A21.66,21.66,0,0,1,243.75,283.8Z"/><path class="a" d="M285.6,283a9.11,9.11,0,0,1-4.5,1.32,5.78,5.78,0,0,1-2.85-.75,36.62,36.62,0,0,0,3.64-6.94,18,18,0,0,0,1.39-6.41,6.85,6.85,0,0,0-1.17-4.24c-.77-1-2.11-1.54-4-1.54a6.26,6.26,0,0,0-5.36,2.78,11.11,11.11,0,0,0-2,6.67,14.91,14.91,0,0,0,1.16,5.78,11.46,11.46,0,0,0,3.27,4.5,23.6,23.6,0,0,1-4.28,4.35,6.64,6.64,0,0,1-3.75,1.65q-2.7,0-2.7-4.28a15.89,15.89,0,0,1,.94-4.69,38.76,38.76,0,0,1,2.21-5.43,11.07,11.07,0,0,1,2.18-3.3,4.23,4.23,0,0,0-1.58-.38,5.63,5.63,0,0,0-4.05,2.25,17.63,17.63,0,0,0-3.3,5.63,18.23,18.23,0,0,0-1.27,6.45,8,8,0,0,0,1.42,4.95,5.29,5.29,0,0,0,4.5,1.87,10,10,0,0,0,5.74-2.17,27.58,27.58,0,0,0,5.74-5.7,8.28,8.28,0,0,0,3.6.75,10.37,10.37,0,0,0,5.4-1.58,10.14,10.14,0,0,0,4-4.87l-.9-.75A8.25,8.25,0,0,1,285.6,283Zm-9.07-.78a10,10,0,0,1-1.92-3.64,15.71,15.71,0,0,1-.63-4.46,10.17,10.17,0,0,1,.71-3.87,7.48,7.48,0,0,1,1.8-2.77,3.16,3.16,0,0,1,2.14-1,1.87,1.87,0,0,1,1.61,1,6.3,6.3,0,0,1,.64,3.16,15.26,15.26,0,0,1-1.2,5.58A31.75,31.75,0,0,1,276.53,282.19Z"/><path class="a" d="M326.26,236.81q-2.56,0-8.29,9.3A136,136,0,0,0,307.58,267q-4.65,11.58-4.65,18.34a9.69,9.69,0,0,0,1.46,5.62,5.16,5.16,0,0,0,4.54,2.1q7.65,0,14.1-13.8l-1.13-.6a38.55,38.55,0,0,1-5.13,8.48q-2.89,3.53-5.67,3.52-3.3,0-3.3-5.77a35.37,35.37,0,0,1,1-7.58,50.43,50.43,0,0,0,9.75-11.18,82,82,0,0,0,7.39-13.61q2.81-6.71,2.81-10.16a10.26,10.26,0,0,0-.71-3.71C327.54,237.42,327,236.81,326.26,236.81Zm-2.33,15.56a88.7,88.7,0,0,1-6.41,12,59.33,59.33,0,0,1-8.07,10.39,99.56,99.56,0,0,1,5.4-14.18A110.17,110.17,0,0,1,321.57,248c2.17-3.42,3.61-5.14,4.31-5.14.35,0,.52.4.52,1.2C326.4,245.78,325.58,248.55,323.93,252.37Z"/><path class="a" d="M347.59,257.77a3.63,3.63,0,0,0,2.22.64,5,5,0,0,0,3.33-1.31,3.67,3.67,0,0,0,1.54-2.74c0-1.55-.82-2.33-2.47-2.33a6.57,6.57,0,0,0-3.68,1.2,3.34,3.34,0,0,0-1.8,2.7A2.15,2.15,0,0,0,347.59,257.77Z"/><path class="a" d="M343.36,290.14a3.67,3.67,0,0,1-2.82-.94c-.57-.63-.86-1.81-.86-3.56a15.22,15.22,0,0,1,1.46-6.19,72,72,0,0,1,3.94-7.39q2.4-4,2.4-5a1.53,1.53,0,0,0-.49-1.2,1.65,1.65,0,0,0-1.16-.46c-1.6,0-3.24,1.31-4.91,3.91a38.58,38.58,0,0,0-4.2,9.07,28,28,0,0,0-1.69,8.1,6.75,6.75,0,0,0,1.5,4.54,5.33,5.33,0,0,0,4.28,1.76,13,13,0,0,0,8.58-3.52,21.64,21.64,0,0,0,6.19-9.83l-.67-.75Q349.21,290.14,343.36,290.14Z"/><path class="a" d="M399.65,287q-2.75,3.38-5.29,3.37-2.25,0-2.25-2.85a8,8,0,0,1,.37-2.4q.38-1.2,1-2.85a27.52,27.52,0,0,0,1.24-3.45,11.63,11.63,0,0,0,.41-3.15,8.12,8.12,0,0,0-1.38-4.76,4.75,4.75,0,0,0-4.17-2q-3.9,0-7.95,3.83a50.91,50.91,0,0,0-7.65,9.37q1.05-3.15,1.73-6a20,20,0,0,0,.67-3.94c0-1.3-.67-1.95-2-1.95a4.27,4.27,0,0,0-2,.49,4.77,4.77,0,0,0-1.5,1.09,26.69,26.69,0,0,1-1.28,7c-.8,2.62-1.82,5.54-3.07,8.74a14.13,14.13,0,0,0-1,2.7,3.57,3.57,0,0,0,1.65,1.23,6.23,6.23,0,0,0,2.33.42q3.08-5.18,5.51-8.85a39.79,39.79,0,0,1,5.55-6.68c2.08-2,4.06-3,6-3s3,1.23,3,3.68a12.69,12.69,0,0,1-.33,2.7c-.23,1-.49,1.95-.79,2.85s-.49,1.71-.71,2.58a9.19,9.19,0,0,0-.34,2.29,4.64,4.64,0,0,0,1.35,3.49,5.39,5.39,0,0,0,3.9,1.31q7.57,0,13-12.67l-.82-1A45.87,45.87,0,0,1,399.65,287Z"/><path class="a" d="M444.91,278.66a30,30,0,0,1-7.57,9.45q-4.65,3.83-9.23,3.83-3.23,0-4.57-1.8a7.29,7.29,0,0,1-1.35-4.5,11.23,11.23,0,0,1,.3-2.7,27.26,27.26,0,0,0,8.7-2.48,21.11,21.11,0,0,0,7.12-5.21,10.28,10.28,0,0,0,2.78-6.86q0-4.58-4.65-4.58-4.28,0-8.74,3.49a29.09,29.09,0,0,0-7.39,8.59,19.32,19.32,0,0,0-2.93,9.52,8.59,8.59,0,0,0,2.37,6.26c1.57,1.63,3.84,2.44,6.79,2.44a17.93,17.93,0,0,0,10.95-4.05,27.13,27.13,0,0,0,8.32-10.72Zm-18.79-4.27a26,26,0,0,1,5-5.93,8.12,8.12,0,0,1,5.06-2.33,1.53,1.53,0,0,1,1.24.42,2.08,2.08,0,0,1,.34,1.31,8.59,8.59,0,0,1-2.44,5.74,24.44,24.44,0,0,1-5.89,4.76,39.16,39.16,0,0,1-6.6,3.15A26.64,26.64,0,0,1,426.12,274.39Z"/></svg>