<svg xmlns="http://www.w3.org/2000/svg" viewBox="0 0 566.93 566.93"><defs><style>.a{fill:#fff;}</style></defs><title>8</title><path class="a" d="M204.55,247.74h.53C232,309.5,233.84,313,233.84,313c3.83,8.52,7.45,8.62,9.58,8.84v.85H206.15v-.85c8.52,0,2.13-12.46,2.13-12.46l-3.41-7.35H184c-2.13,4.9-.21,19.81,12.57,19.81v.85H165.89v-.85c3.2-.22,8.94-1.07,17.15-19.81Zm-10.76,29.39-9.48,24h20.13Z"/><path class="a" d="M270.58,321.86v.85H244v-.85c4.05-1.17,4.16-5.65,4.16-11.18V255.4c0-3.72-1.28-5.22-5.65-6.81v-.85l23.75-4.48v67.42C266.21,316.53,266.75,320.79,270.58,321.86Z"/><path class="a" d="M300.08,321.86v.85H273.45v-.85c4.05-1.17,4.16-5.75,4.16-11.18v-26c0-3.73-1.17-5.22-5.54-6.82V277l23.64-4.47v38.13C295.71,316.53,296.25,320.79,300.08,321.86Zm-24.71-62.2a10.17,10.17,0,1,1,10.12,10.12A10,10,0,0,1,275.37,259.66Z"/><path class="a" d="M339.16,317.92s-4,5.75-16.4,5.75c-12.88,0-18.95-3.62-18.95-3.62v-14h1c2.12,9.91,11,16.62,18,16.62,7.56,0,9.27-8.84,1.17-14.16l-10.75-6.5c-10-6.6-12.68-17.15-6.18-24.39,0,0,3.94-5.11,16.08-5.11s17.36,3,17.36,3v10.86h-1c-1.91-9.58-10.22-12.88-16.4-12.88-6.92,0-10.22,6.92-1,12.78L332.88,293C342.57,298.85,345,310.89,339.16,317.92Z"/><path class="a" d="M401,315.89c-1.49,4.69-7,7.78-13.74,7.78,0,0-11.82,0-12.78-9.59-1.38,5.54-6.81,9.59-14.38,9.59-4,0-13.31-1.81-13.31-10.87,0-10.65,8.63-12.67,27.59-17.14v-6.82c0-11.07-6.29-17-13.64-13.2,0,0-2.34,1.38,1.28,2.66a6.9,6.9,0,0,1,3.84,4.05,7.55,7.55,0,1,1-14,5.75,7.7,7.7,0,0,1,1.28-7.88,25.08,25.08,0,0,1,7.14-5.43,21,21,0,0,1,10-2.24c13.95,0,21.72,8.73,21.72,21.3v15.87s0,7.66,5.12,7.45c0,0,2.66,0,3.19-1.81Zm-26.62-19.17c-8.74,1.92-8.63,8.42-8.63,13.42,0,0-.11,7,4.15,7,1.81,0,3.3-1.49,4.48-4.05Z"/></svg>