<svg id="Layer_1" data-name="Layer 1" xmlns="http://www.w3.org/2000/svg" viewBox="0 0 601.99 97.73"><defs><style>.cls-1{fill:#fff;}</style></defs><title>logo</title><g id="logo"><path class="cls-1" d="M231.43,551.23a45.13,45.13,0,0,1-32.51-13.79,47.86,47.86,0,0,1,0-66.55,45.22,45.22,0,0,1,65,0,47.86,47.86,0,0,1,0,66.55A45.16,45.16,0,0,1,231.43,551.23Zm0-93c-24.72,0-44.82,20.6-44.82,45.91s20.1,45.92,44.82,45.92,44.81-20.6,44.81-45.92S256.14,458.25,231.43,458.25Z" transform="translate(-185.46 -457.1)"/><path class="cls-1" d="M235.86,551.41a46.93,46.93,0,0,1-32.52-12.81,42.28,42.28,0,0,1,0-61.93,47.67,47.67,0,0,1,65,0,42.28,42.28,0,0,1,0,61.93A46.93,46.93,0,0,1,235.86,551.41Zm0-86.4C211.13,465,191,484.13,191,507.63s20.13,42.63,44.86,42.63,44.86-19.12,44.86-42.63S260.6,465,235.86,465Z" transform="translate(-185.46 -457.1)"/><path class="cls-1" d="M231.62,554.83c-11.17,0-21.67-4.91-29.56-13.82a51.51,51.51,0,0,1,0-66.6c7.89-8.92,18.39-13.83,29.56-13.83s21.67,4.91,29.56,13.83a51.51,51.51,0,0,1,0,66.6C253.29,549.92,242.79,554.83,231.62,554.83Zm0-93.1c-22.4,0-40.62,20.63-40.62,46s18.22,46,40.62,46,40.61-20.62,40.61-46S254,461.73,231.62,461.73Z" transform="translate(-185.46 -457.1)"/><g id="xcool"><path class="cls-1" d="M347.56,543.94A39.9,39.9,0,0,1,333,528.29a48.63,48.63,0,0,1-.66-42.48A35.12,35.12,0,0,1,365,465.71a52.69,52.69,0,0,1,17.82,2.7q7.5,2.7,11,6.9a12.74,12.74,0,0,1,2.46,6.36,74.75,74.75,0,0,1,.54,9.84h-2.4q-2.28-10.56-8.64-15.78t-17.16-5.22q-9.72,0-16.2,5.1a29.8,29.8,0,0,0-9.54,13.26,49.84,49.84,0,0,0-3.06,17.64q0,20.28,7.92,29.34t20.88,9.06a43.61,43.61,0,0,0,10.44-1.08,35.86,35.86,0,0,0,8.16-3.12V519.82a17.46,17.46,0,0,1,1.32-7.07q1.32-3,5.7-5t12.78-2v2.4q-5.4,0-7.2,2.76t-1.8,8.64v22.56a48.77,48.77,0,0,1-13.56,5.75,63.85,63.85,0,0,1-15.84,1.81A39.09,39.09,0,0,1,347.56,543.94Z" transform="translate(-185.46 -457.1)"/><path class="cls-1" d="M447,545.5q-3.31-2.65-7.35-9.53l-8.4-14.28H425.4v25.62h-7.56V502a13.31,13.31,0,0,0-1.17-6.35q-1.19-2.06-4.71-2.05h-1.68v-1.68h21.84A32.83,32.83,0,0,1,446.61,495q6.51,3.15,6.51,12,0,11.16-13.44,14.28L448.5,536a29,29,0,0,0,5.59,7.26,10.54,10.54,0,0,0,5.75,2.4v1.68a9.63,9.63,0,0,1-2.14.58,16,16,0,0,1-2.9.26A12.11,12.11,0,0,1,447,545.5Zm-9.66-28a12.69,12.69,0,0,0,5.21-3.94,10.17,10.17,0,0,0,2.14-6.55,10.74,10.74,0,0,0-2.14-6.85,13,13,0,0,0-5.21-4,14.53,14.53,0,0,0-5.67-1.3,26,26,0,0,0-6.3.84V517.9a25.59,25.59,0,0,0,6.3.85A15,15,0,0,0,437.37,517.48Z" transform="translate(-185.46 -457.1)"/><path class="cls-1" d="M503.18,545.29q-3.94-2-6.29-8.48l-2.1-5.88H471.27l-6.72,16.38h-3.78l23.52-55.86h2.52l18.48,45.36a21.71,21.71,0,0,0,3.94,6.67,8.39,8.39,0,0,0,5.3,2.12v1.71h-3.36A17.5,17.5,0,0,1,503.18,545.29Zm-10.07-17.72L483,503.21l-10.5,24.36Z" transform="translate(-185.46 -457.1)"/><path class="cls-1" d="M524.86,547.31H521.5V502a9.84,9.84,0,0,0-1.73-6.22c-1.14-1.46-3.09-2.18-5.83-2.18h-.84v-1.68h5.46a15.37,15.37,0,0,1,6.55,1.26,13.93,13.93,0,0,1,4.79,3.78l29.4,36.53V491.87h3.36v56.27H561l-36.12-44.93Z" transform="translate(-185.46 -457.1)"/><path class="cls-1" d="M577.52,495.6q-1.17-2.06-4.7-2.05h-1.68v-1.68h22q16.29,0,24.65,7.22t8.36,20.16a29.59,29.59,0,0,1-3.53,14.66,24.11,24.11,0,0,1-10.46,9.87q-6.93,3.53-16.84,3.53H578.7V502C578.7,499.09,578.31,497,577.52,495.6Zm28.77,45.7a21.21,21.21,0,0,0,7.86-8.65,31.27,31.27,0,0,0,0-26,20.83,20.83,0,0,0-19.28-11.84,28.37,28.37,0,0,0-8.4,1.34v47.12a38.07,38.07,0,0,0,8.57,1.09A21,21,0,0,0,606.29,541.3Z" transform="translate(-185.46 -457.1)"/><path class="cls-1" d="M637,495.6c-.79-1.37-2.35-2.05-4.71-2.05h-1.68v-1.68H666.4q7.14,0,7.14,6.72v6.3h-1.68q0-9.66-10.5-9.66H645.73v21.84h22.68v3.36H645.73v23.51h14.7c3.87,0,6.89-.69,9.08-2.09s3.91-3.78,5.2-7.14l1.68.42-2.94,8q-1.5,4.2-6.3,4.2h-29V502A13.31,13.31,0,0,0,637,495.6Z" transform="translate(-185.46 -457.1)"/><path class="cls-1" d="M695.8,545.42a15,15,0,0,1-6.68-8.11q-2-5.37-2-13.95V502A13.3,13.3,0,0,0,686,495.6c-.79-1.37-2.35-2.05-4.71-2.05h-1.68v-1.68h7.57a10.62,10.62,0,0,1,4.66.79,4.69,4.69,0,0,1,2.22,2.9,22.37,22.37,0,0,1,.68,6.39v23.94q0,9.32,3.44,14.11t11.42,4.79q6.39,0,10.13-2.27a12.52,12.52,0,0,0,5.33-6.89,38.68,38.68,0,0,0,1.59-12.27V491.87H730v31.49q0,8.75-1.85,14.08a14.37,14.37,0,0,1-6.51,8q-4.67,2.68-13.06,2.69Q700.5,548.15,695.8,545.42Z" transform="translate(-185.46 -457.1)"/><path class="cls-1" d="M774.63,545.5q-3.32-2.65-7.35-9.53l-8.4-14.28H753v25.62h-7.56V502c0-2.86-.39-5-1.18-6.35s-2.35-2.05-4.7-2.05h-1.68v-1.68h21.84A32.83,32.83,0,0,1,774.21,495q6.51,3.15,6.51,12,0,11.16-13.44,14.28L776.1,536a29,29,0,0,0,5.59,7.26,10.54,10.54,0,0,0,5.75,2.4v1.68a9.63,9.63,0,0,1-2.14.58,16,16,0,0,1-2.9.26A12.11,12.11,0,0,1,774.63,545.5Zm-9.66-28a12.76,12.76,0,0,0,5.21-3.94,10.17,10.17,0,0,0,2.14-6.55,10.74,10.74,0,0,0-2.14-6.85,13.07,13.07,0,0,0-5.21-4,14.53,14.53,0,0,0-5.67-1.3,26,26,0,0,0-6.3.84V517.9a25.59,25.59,0,0,0,6.3.85A15,15,0,0,0,765,517.48Z" transform="translate(-185.46 -457.1)"/></g></g></svg>