<?xml version="1.0"?>
<svg xmlns="http://www.w3.org/2000/svg" height="512px" viewBox="0 0 480 480" width="512px" class=""><g><path d="m240 0c-132.546875 0-240 107.453125-240 240s107.453125 240 240 240 240-107.453125 240-240c-.148438-132.484375-107.515625-239.851562-240-240zm0 464c-123.710938 0-224-100.289062-224-224s100.289062-224 224-224 224 100.289062 224 224c-.140625 123.652344-100.347656 223.859375-224 224zm0 0" data-original="#000000" class="active-path" data-old_color="#000000" fill="#FFFFFF"/><path d="m328 104c0-13.253906-10.746094-24-24-24h-128c-13.253906 0-24 10.746094-24 24v56h-40v216c0 13.253906 10.746094 24 24 24h208c13.253906 0 24-10.746094 24-24v-216h-40zm-160 0c0-4.417969 3.582031-8 8-8h128c4.417969 0 8 3.582031 8 8v56h-144zm184 72v200c0 4.417969-3.582031 8-8 8h-208c-4.417969 0-8-3.582031-8-8v-200h24v18.222656c-6.273438 3.621094-9.328125 11.003906-7.453125 18 1.871094 6.992188 8.210937 11.859375 15.453125 11.859375s13.582031-4.867187 15.453125-11.859375c1.875-6.996094-1.179687-14.378906-7.453125-18v-18.222656h144v18.222656c-6.273438 3.621094-9.328125 11.003906-7.453125 18 1.871094 6.992188 8.210937 11.859375 15.453125 11.859375s13.582031-4.867187 15.453125-11.859375c1.875-6.996094-1.179687-14.378906-7.453125-18v-18.222656zm0 0" data-original="#000000" class="active-path" data-old_color="#000000" fill="#FFFFFF"/><path d="m240 208c-44.183594 0-80 35.816406-80 80s35.816406 80 80 80 80-35.816406 80-80c-.046875-44.164062-35.835938-79.953125-80-80zm0 144c-35.347656 0-64-28.652344-64-64s28.652344-64 64-64 64 28.652344 64 64c-.039062 35.328125-28.671875 63.960938-64 64zm0 0" data-original="#000000" class="active-path" data-old_color="#000000" fill="#FFFFFF"/><path d="m224.863281 299.824219-18.464843-24.625-12.796876 9.601562 24 32c1.386719 1.863281 3.515626 3.03125 5.832032 3.199219h.566406c2.121094 0 4.15625-.84375 5.65625-2.34375l56-56-11.3125-11.3125zm0 0" data-original="#000000" class="active-path" data-old_color="#000000" fill="#FFFFFF"/></g> </svg>
