<svg xmlns="http://www.w3.org/2000/svg" viewBox="0 0 254.77 66.07"><defs><style>.a{fill:#7c1322;}.b{fill:#3a3a3b;}</style></defs><title>black</title><polygon class="a" points="64.08 7.16 57 14.25 53.08 14.25 45.99 7.16 48.4 4.75 48.45 4.7 61.62 4.7 61.66 4.75 64.08 7.16"/><path class="b" d="M44.58,58.42a19.23,19.23,0,0,1-6.94-8.06A26.22,26.22,0,0,1,35.21,39a26.21,26.21,0,0,1,2.43-11.38,19.23,19.23,0,0,1,6.94-8.06A18.72,18.72,0,0,1,55,16.59,18.72,18.72,0,0,1,65.5,19.53a19.3,19.3,0,0,1,6.94,8.06A26.21,26.21,0,0,1,74.87,39a26.22,26.22,0,0,1-2.43,11.39,19.3,19.3,0,0,1-6.94,8.06A18.72,18.72,0,0,1,55,61.36,18.72,18.72,0,0,1,44.58,58.42Zm17.66-2.05a15.06,15.06,0,0,0,4.63-6.87A31.06,31.06,0,0,0,68.47,39a31,31,0,0,0-1.6-10.52,15.15,15.15,0,0,0-4.63-6.88,11.88,11.88,0,0,0-14.4,0,15.15,15.15,0,0,0-4.63,6.88A31,31,0,0,0,41.61,39a31.06,31.06,0,0,0,1.6,10.53,15.06,15.06,0,0,0,4.63,6.87,11.88,11.88,0,0,0,14.4,0Z"/><path class="b" d="M83.25,20.71c-.6-1-1.79-1.57-3.58-1.57H78.39V17.86H95a23.14,23.14,0,0,1,11.06,2.63Q111,23.12,111,30.66q0,5-2.56,7.67a12.67,12.67,0,0,1-5.72,3.59,21.73,21.73,0,0,1-5.79.89h-7V60.08H84.14V25.54A10.18,10.18,0,0,0,83.25,20.71Zm15.8,18.81A10,10,0,0,0,103,36.16a9.83,9.83,0,0,0,1.63-5.82,9.64,9.64,0,0,0-5.56-9.18A10.57,10.57,0,0,0,94.7,20.1a20.22,20.22,0,0,0-4.8.64V39.93a19.72,19.72,0,0,0,4.8.64A10.55,10.55,0,0,0,99.05,39.52Z"/><path class="b" d="M142.29,58.55q-3-1.54-4.8-6.46l-1.6-4.48H118l-5.12,12.47H110L127.9,17.55h1.92l14.07,34.54a16.62,16.62,0,0,0,3,5.08,6.33,6.33,0,0,0,4,1.61v1.3h-2.55A13.27,13.27,0,0,1,142.29,58.55Zm-7.68-13.5L126.94,26.5l-8,18.55Z"/><path class="b" d="M155.08,20.71c-.6-1-1.79-1.57-3.58-1.57h-1.28V17.86H156a8.15,8.15,0,0,1,3.55.61,3.53,3.53,0,0,1,1.69,2.21,17.2,17.2,0,0,1,.51,4.86v32h22.71v2.56H156V25.54A10,10,0,0,0,155.08,20.71Z"/><path class="b" d="M189.56,20.71c-.6-1-1.79-1.57-3.58-1.57H184.7V17.86H212q5.43,0,5.43,5.12v4.8H216.1q0-7.35-8-7.36h-11.9V37.05h17.27v2.56H196.21V57.52h11.2a12.67,12.67,0,0,0,6.9-1.6,10.65,10.65,0,0,0,4-5.43l1.28.32-2.24,6.07a4.61,4.61,0,0,1-4.8,3.2H190.45V25.54A10.06,10.06,0,0,0,189.56,20.71Z"/></svg>