<svg xmlns="http://www.w3.org/2000/svg" viewBox="0 0 200 200"><title>fbB</title><path d="M151.87,28.79H48.14A19.14,19.14,0,0,0,29,47.92V151.65a19.14,19.14,0,0,0,19.14,19.14H99.29L99.38,120H86.2a3.11,3.11,0,0,1-3.11-3L83,100.59a3.1,3.1,0,0,1,3.08-3.12H99.3V81.66c0-18.34,11.2-28.32,27.56-28.32h13.42a3.11,3.11,0,0,1,3.11,3.11h0V70.24a3.1,3.1,0,0,1-3.09,3.11h-8.25c-8.9,0-10.62,4.23-10.62,10.44V97.47H141a3.11,3.11,0,0,1,3.11,3.11c0,.12,0,.24,0,.36l-1.94,16.36a3.11,3.11,0,0,1-3.09,2.75H121.51l-.08,50.74h30.44A19.14,19.14,0,0,0,171,151.65V47.92A19.15,19.15,0,0,0,151.87,28.79Z"/></svg>