<svg xmlns="http://www.w3.org/2000/svg" viewBox="0 0 200 200"><defs><style>.a{fill:#fff;}</style></defs><title>instagram</title><path class="a" d="M127.31,25H66.69A44.74,44.74,0,0,0,22,69.72v60.63A44.73,44.73,0,0,0,66.69,175h60.62A44.73,44.73,0,0,0,172,130.35V69.72A44.74,44.74,0,0,0,127.31,25Zm29.6,105.32a29.59,29.59,0,0,1-29.6,29.59H66.69a29.59,29.59,0,0,1-29.6-29.59V69.72a29.6,29.6,0,0,1,29.6-29.6h60.62a29.6,29.6,0,0,1,29.6,29.6v60.63Z"/><path class="a" d="M97,61.24A38.8,38.8,0,1,0,135.8,100,38.84,38.84,0,0,0,97,61.24Zm0,62.5A23.71,23.71,0,1,1,120.71,100,23.71,23.71,0,0,1,97,123.74Z"/><circle class="a" cx="135.87" cy="61.53" r="9.3"/></svg>