<svg xmlns="http://www.w3.org/2000/svg" viewBox="0 0 200 200"><title>twitterB</title><path d="M173.32,51.56a60.3,60.3,0,0,1-10.45,3.52,32.62,32.62,0,0,0,8.6-13.69h0a1.7,1.7,0,0,0-2.5-2h0A60.49,60.49,0,0,1,153,46a4.21,4.21,0,0,1-3.8-.94,32.65,32.65,0,0,0-21.6-8.16,34.88,34.88,0,0,0-10.34,1.6A31.62,31.62,0,0,0,96,61.29a34.62,34.62,0,0,0-.78,12,1.17,1.17,0,0,1-.29.91,1.21,1.21,0,0,1-.9.41h-.12A85.59,85.59,0,0,1,35,43.2h0A1.71,1.71,0,0,0,32.59,43a1.73,1.73,0,0,0-.39.46h0A32.68,32.68,0,0,0,37.53,83.1a29,29,0,0,1-7.45-2.88h0a1.7,1.7,0,0,0-2.53,1.47h0a32.67,32.67,0,0,0,19.07,30.12h-.7a29.79,29.79,0,0,1-5.5-.52h0a1.71,1.71,0,0,0-2,1.3,1.69,1.69,0,0,0,0,.89h0a32.72,32.72,0,0,0,25.85,22.26A60.3,60.3,0,0,1,30.57,146H26.8a2.52,2.52,0,0,0-2.45,1.88,2.6,2.6,0,0,0,1.24,2.86,89.7,89.7,0,0,0,45,12.14,90.75,90.75,0,0,0,38.49-8.16,85,85,0,0,0,28.15-21.1,92.68,92.68,0,0,0,17.25-28.88,91.2,91.2,0,0,0,5.86-31.6v-.5a5.54,5.54,0,0,1,2.08-4.32,64.78,64.78,0,0,0,13-14.25h0a1.71,1.71,0,0,0-2.11-2.51Z"/></svg>